<?xml version="1.0" encoding="UTF-8"?><svg id="a" xmlns="http://www.w3.org/2000/svg" viewBox="0 0 198 151.34"><path d="M85.58,107.42l-.43-5.66c-1.3-11.74,2.61-24.58,13.48-37.62,9.78-11.53,15.22-20.01,15.22-29.79,0-11.09-6.96-18.49-20.65-18.71-7.83,0-21.53,8.61-26.96,12.75l-5.21-13.7C68.19,9.48,85.58,0,97.11,0c25.01,0,36.32,15.44,36.32,31.96,0,14.79-8.26,25.44-18.7,37.84-9.57,11.31-13.05,20.88-12.39,31.97l.21,5.66h-16.96Zm-4.78,30.44c0-8.04,5.44-13.7,13.05-13.7s12.83,5.66,12.83,13.7c0,7.61-5,13.48-13.05,13.48-7.61,0-12.83-5.87-12.83-13.48Z"/></svg>